<?xml version="1.0" encoding="UTF-8" standalone="no"?>
<svg
   xmlns:dc="http://purl.org/dc/elements/1.1/"
   xmlns:cc="http://creativecommons.org/ns#"
   xmlns:rdf="http://www.w3.org/1999/02/22-rdf-syntax-ns#"
   xmlns:svg="http://www.w3.org/2000/svg"
   xmlns="http://www.w3.org/2000/svg"
   id="svg849"
   version="1.1"
   viewBox="0 0 15.875 15.875"
   height="15.875"
   width="15.875">
  <defs
     id="defs843">
    <pattern
       id="EMFhbasepattern"
       patternUnits="userSpaceOnUse"
       width="6"
       height="6"
       x="0"
       y="0" />
  </defs>
  <metadata
     id="metadata846">
    <rdf:RDF>
      <cc:Work
         rdf:about="">
        <dc:format>image/svg+xml</dc:format>
        <dc:type
           rdf:resource="http://purl.org/dc/dcmitype/StillImage" />
        <dc:title></dc:title>
      </cc:Work>
    </rdf:RDF>
  </metadata>
  <g
     transform="translate(-2.2351743e-8,-281.12497)"
     id="layer1">
    <circle
       r="7.9146523"
       cy="289.06247"
       cx="7.9375"
       id="path5250"
       style="fill:#ffffff;fill-opacity:1;fill-rule:nonzero;stroke:#ffffff;stroke-width:0.04569526;stroke-opacity:1" />
    <g
       transform="matrix(0.12083333,0,0,0.12083333,0.26458333,260.8479)"
       id="g5240">
      <circle
         style="fill:#ffffff;fill-opacity:1;stroke:none;stroke-width:0.12402343;stroke-opacity:1"
         id="path5233"
         cx="63.499996"
         cy="233.49998"
         r="63.499996" />
      <path
         id="path5212"
         d="m 45.357137,253.817 v -40.55903 c -11.1706,10.04604 -12.145218,27.21427 -2.099172,38.45985 0.674734,0.74971 1.34947,1.42447 2.099172,2.09918 z"
         style="fill:#7700ff;fill-opacity:1;fill-rule:evenodd;stroke:none;stroke-width:1.36066437" />
      <path
         id="path5214"
         d="m 65.749116,188.29281 v 90.5643 c 5.472844,-0.29983 10.870716,-1.57437 15.893738,-3.74849 v -32.4622 h 9.071428 v 27.21427 c 11.395518,-8.62164 18.142858,-22.04133 18.142858,-36.28569 0,-14.31941 -6.74734,-27.7391 -18.142858,-36.28575 v 27.2143 h -9.071428 v -32.46218 c -5.023022,-2.24916 -10.420894,-3.44868 -15.893738,-3.74856 z"
         style="fill:#7700ff;fill-opacity:1;fill-rule:evenodd;stroke:none;stroke-width:1.36066437" />
      <path
         id="path5216"
         d="m 63.499998,296.99998 v -127 C 28.488778,169.99998 0,198.4888 0,233.50002 c 0,35.08617 28.488778,63.49996 63.499998,63.49996 z M 61.250884,188.29281 v 90.5643 C 36.21074,277.58266 16.943328,256.29102 18.217827,231.32586 19.417354,208.01008 38.01003,189.41737 61.250884,188.29281 Z"
         style="fill:#7700ff;fill-opacity:1;fill-rule:evenodd;stroke:none;stroke-width:1.36066437" />
      <path
         id="path5218"
         d="m 63.499998,171.19953 c 34.411449,0 62.375452,27.96403 62.375452,62.37547 0,34.41145 -27.964003,62.30044 -62.375452,62.30044 v 1.12454 C 98.586179,296.99998 127,268.58619 127,233.575 127,198.4888 98.586179,170.07496 63.499998,170.07496 Z"
         style="fill:#7700ff;fill-opacity:1;fill-rule:evenodd;stroke:none;stroke-width:1.36066437" />
    </g>
  </g>
</svg>
